<svg xmlns="http://www.w3.org/2000/svg" width="64" height="64" viewBox="0 0 64 64"><path fill="#f7931a" d="M63.04 39.74a32 32 0 1 1-62.1-15.5 32 32 0 0 1 62.1 15.5z"/><path fill="#fff" d="M46.54 27.29c.63-4.26-2.61-6.55-7.04-8.07l1.43-5.77-3.51-.88-1.4 5.62c-.92-.23-1.87-.45-2.81-.66l1.41-5.65-3.51-.88-1.44 5.77-2.24-.53v-.02l-4.84-1.21-.93 3.75s2.6.6 2.55.64c1.42.35 1.68 1.29 1.63 2.04l-1.63 6.57c.09.02.22.06.36.12l-.37-.1-2.3 9.21c-.17.43-.61 1.08-1.6.83.03.05-2.56-.63-2.56-.63L16 41.46l4.57 1.14 2.5.64-1.45 5.84 3.51.87 1.44-5.77c.95.26 1.88.5 2.79.73l-1.43 5.74 3.51.88 1.45-5.83c5.99 1.14 10.49.68 12.39-4.74 1.52-4.36-.08-6.87-3.23-8.51 2.3-.53 4.02-2.04 4.48-5.16zM27.71 39.95l1.92-7.73c2.38.6 10.01 1.77 8.88 6.32-1.08 4.36-8.42 2-10.8 1.41zm2.8-11.26l1.75-7.01c1.99.49 8.37 1.41 7.34 5.55-.99 3.96-7.1 1.95-9.09 1.46z"/></svg>