
<svg width="178px" height="40px" viewBox="0 0 178 40" version="1.1" xmlns="http://www.w3.org/2000/svg" xmlns:xlink="http://www.w3.org/1999/xlink">
    <!-- Generator: Sketch 45.2 (43514) -->
    <desc>Created with Sketch.</desc>
    <defs></defs>
    <g id="Symbols" stroke="none" stroke-width="1" fill="none" fill-rule="evenodd" opacity="0.974720137">
        <g id="Header" transform="translate(-208.000000, -15.000000)" fill-rule="nonzero" fill="#000000">
            <g id="Logo">
                <g transform="translate(208.000000, 15.000000)">
                    <g id="Group">
                        <path d="M12.2071984,0.155844156 C12.2071984,0.155844156 12.2071984,0.155844156 12.2071984,0.155844156 L0.103891051,20.017316 L3.51498054,18.978355 L12.2071984,4.5021645 C12.2071984,4.5021645 12.2071984,4.5021645 12.2071984,4.5021645 L20.8994163,18.978355 L24.3105058,20.017316 L12.2071984,0.155844156 Z" id="Shape"></path>
                        <path d="M20.8994163,21.038961 L12.2071984,35.5151515 C12.2071984,35.5151515 12.2071984,35.5151515 12.2071984,35.5151515 L3.51498054,21.038961 L0.103891051,20 L12.2071984,39.8614719 C12.2071984,39.8614719 12.2071984,39.8614719 12.2071984,39.8614719 L24.3105058,20 L20.8994163,21.038961 Z" id="Shape"></path>
                        <polygon id="Shape" points="3.51498054 18.978355 12.8651751 18.978355 14.7698444 20.017316 12.7439689 21.0562771 3.51498054 21.0562771 0.103891051 20.017316"></polygon>
                        <polygon id="Shape" points="24.2931907 0.155844156 12.2071984 20 15.6182879 18.961039 24.2931907 4.5021645 32.9854086 18.961039 36.3964981 20"></polygon>
                        <polygon id="Shape" points="32.9854086 21.038961 24.2931907 35.5151515 15.6182879 21.038961 12.2071984 20 24.2931907 39.8614719 36.3964981 20"></polygon>
                        <polygon id="Shape" points="15.6182879 18.961039 33.7126459 18.961039 36.3964981 20 33.3143969 21.038961 15.6182879 21.038961 12.2071984 20"></polygon>
                    </g>
                    <g id="Group" transform="translate(42.941634, 11.948052)">
                        <polygon id="Shape" points="13.2287938 15.7056277 13.2287938 4.31168831 8.51906615 15.7056277 7.37626459 15.7056277 2.68385214 4.31168831 2.68385214 15.7056277 -5.68434189e-14 15.7056277 -5.68434189e-14 0.363636364 3.79202335 0.363636364 7.94766537 10.4588745 12.1379377 0.363636364 15.9299611 0.363636364 15.9299611 15.7056277 13.2287938 15.7056277"></polygon>
                        <path d="M20.9167315,9.64502165 L20.9167315,0.346320346 L23.635214,0.346320346 L23.635214,9.54112554 C23.635214,11.982684 24.9857977,13.5584416 27.5657588,13.5584416 C30.1110895,13.5584416 31.4789883,11.965368 31.4789883,9.54112554 L31.4789883,0.346320346 L34.1974708,0.346320346 L34.1974708,9.61038961 C34.1974708,13.4372294 32.0157588,15.965368 27.5657588,15.965368 C23.0984436,15.982684 20.9167315,13.4199134 20.9167315,9.64502165 Z" id="Shape"></path>
                        <path d="M38.1799611,13.5411255 L39.6690661,11.4632035 C40.7252918,12.5887446 42.3875486,13.5757576 44.5173152,13.5757576 C46.7336576,13.5757576 47.5994163,12.5021645 47.5994163,11.4805195 C47.5994163,8.25974026 38.6474708,10.2683983 38.6474708,4.60606061 C38.6474708,2.07792208 40.8811284,0.121212121 44.2402724,0.121212121 C46.6297665,0.121212121 48.5690661,0.883116883 49.9889105,2.26839827 L48.4478599,4.27705628 C47.2531128,3.08225108 45.6254864,2.52813853 44.0151751,2.52813853 C42.422179,2.52813853 41.4178988,3.29004329 41.4178988,4.43290043 C41.4178988,7.29004329 50.335214,5.50649351 50.335214,11.2380952 C50.335214,13.7835498 48.5344358,15.982684 44.3961089,15.982684 C41.5910506,15.982684 39.5478599,14.995671 38.1799611,13.5411255 Z" id="Shape"></path>
                        <polygon id="Shape" points="54.5601167 15.7056277 54.5601167 0.363636364 65.070428 0.363636364 65.070428 2.73593074 57.2439689 2.73593074 57.2439689 6.71861472 64.8972763 6.71861472 64.8972763 9.09090909 57.2439689 9.09090909 57.2439689 13.3333333 65.070428 13.3333333 65.070428 15.7056277"></polygon>
                        <path d="M78.316537,15.7056277 L74.9054475,9.97402597 L72.2389105,9.97402597 L72.2389105,15.7056277 L69.5550584,15.7056277 L69.5550584,0.363636364 L76.2906615,0.363636364 C79.3208171,0.363636364 81.3120623,2.33766234 81.3120623,5.17748918 C81.3120623,7.91341991 79.511284,9.38528139 77.6758755,9.67965368 L81.4332685,15.7056277 L78.316537,15.7056277 Z M78.5589494,5.16017316 C78.5589494,3.68831169 77.4507782,2.71861472 75.944358,2.71861472 L72.2562257,2.71861472 L72.2562257,7.6017316 L75.944358,7.6017316 C77.4507782,7.6017316 78.5589494,6.63203463 78.5589494,5.16017316 Z" id="Shape"></path>
                        <polygon id="Shape" points="85.7274319 15.7056277 85.7274319 0.363636364 96.2377432 0.363636364 96.2377432 2.73593074 88.411284 2.73593074 88.411284 6.71861472 96.0645914 6.71861472 96.0645914 9.09090909 88.411284 9.09090909 88.411284 13.3333333 96.2377432 13.3333333 96.2377432 15.7056277"></polygon>
                        <path d="M100.722374,9.64502165 L100.722374,0.346320346 L103.440856,0.346320346 L103.440856,9.54112554 C103.440856,11.982684 104.79144,13.5584416 107.371401,13.5584416 C109.916732,13.5584416 111.28463,11.965368 111.28463,9.54112554 L111.28463,0.346320346 L114.003113,0.346320346 L114.003113,9.61038961 C114.003113,13.4372294 111.821401,15.965368 107.371401,15.965368 C102.904086,15.982684 100.722374,13.4199134 100.722374,9.64502165 Z" id="Shape"></path>
                        <polygon id="Shape" points="132.235992 15.7056277 132.235992 4.31168831 127.526265 15.7056277 126.383463 15.7056277 121.691051 4.31168831 121.691051 15.7056277 119.007198 15.7056277 119.007198 0.363636364 122.799222 0.363636364 126.954864 10.4588745 131.145136 0.363636364 134.93716 0.363636364 134.93716 15.7056277 132.235992 15.7056277"></polygon>
                    </g>
                </g>
            </g>
        </g>
    </g>
</svg>