<svg xmlns="http://www.w3.org/2000/svg" width="24" height="23" viewBox="0 0 24 23"><path fill="#939ea7" d="M23.66 7.58l-.27.86a10.48 10.48 0 0 1-2.51 3.86l-.05.04-1.42 1.19a9.13 9.13 0 0 1-4.7 7.63 1.46 1.46 0 0 1-1.23.08c-.4-.17-.69-.5-.8-.91l-.42-1.62-.47.16a2.9 2.9 0 0 1-2.95-.63l-2.6-2.52a2.68 2.68 0 0 1-.65-2.86l.18-.46-1.68-.41a1.36 1.36 0 0 1-.93-.78c-.17-.38-.14-.82.08-1.18.41-.69.91-1.33 1.49-1.89a9.65 9.65 0 0 1 6.37-2.68l1.27-1.44a10.68 10.68 0 0 1 3.97-2.42l.09-.04.8-.23c1.78-.45 3.66-.44 5.43.02.48.12.85.49.98.95.47 1.72.48 3.55.02 5.28zm-9.38 11.78a7.47 7.47 0 0 0 3.05-4.13l-3.29 2.69-.12.07zM6 9.37c-.33.33-.64.69-.91 1.07l1.53.37L9.4 7.48A7.84 7.84 0 0 0 6 9.37zm15.96-6.39a9.1 9.1 0 0 0-4.28.04l-.69.2-.06.02a8.98 8.98 0 0 0-3.25 1.98l-.05.05-1.43 1.62-3.61 4.33c-.56.67-1 1.43-1.31 2.24a.94.94 0 0 0 .23 1.03l2.6 2.52c.27.27.69.36 1.06.23 0 0 1.43-.45 1.72-.65.61-.44 6.74-5.55 6.74-5.55a8.44 8.44 0 0 0 2.06-3.18l.01-.02a8.37 8.37 0 0 0 .26-4.86zm-4.99 7.64a2.96 2.96 0 0 1-2.99-2.91 2.95 2.95 0 0 1 2.99-2.91c1.66 0 3 1.3 3 2.91 0 1.6-1.34 2.91-3 2.91zm0-4.08c-.66 0-1.2.53-1.2 1.17 0 .64.54 1.16 1.2 1.16.67 0 1.2-.52 1.2-1.16 0-.64-.53-1.17-1.2-1.17zM4.29 16.09c.35.34.35.9 0 1.24l-1.76 1.7a.9.9 0 0 1-.63.26.93.93 0 0 1-.64-.26.85.85 0 0 1 0-1.23l1.76-1.71a.92.92 0 0 1 1.27 0zm.94 1.71a.92.92 0 0 1 1.27 0c.35.34.35.89 0 1.23l-3.83 3.71a.9.9 0 0 1-.63.26.93.93 0 0 1-.64-.26.85.85 0 0 1 0-1.23zm.37 3.5a.85.85 0 0 0 0 1.23c.17.17.4.26.63.26.23 0 .46-.09.64-.26l1.44-1.39a.86.86 0 0 0 0-1.24.92.92 0 0 0-1.27 0z"/></svg>