<svg xmlns="http://www.w3.org/2000/svg" width="20" height="25" viewBox="0 0 20 25"><path fill="#939ea7" d="M19.59 5.64l-7.31 7.32c-.1.1-.21.17-.33.23a.55.55 0 0 1-.09.07C8.89 14.97 7.45 15.4 6.7 15.4c-.48 0-.69-.17-.84-.3-.46-.4-1.23-1.07 1.93-6.1.05-.09 7.56-7.6 7.56-7.6.25-.25.61-.41.94-.4.33 0 .64.13.87.35l2.47 2.48c.49.49.47 1.3-.04 1.81zM7.57 13.3c.57-.22 1.36-.59 2.19-1.02l-1.1-1.1c-.46.8-.85 1.56-1.09 2.12zm8.7-10.19L9.76 9.64l1.6 1.6 6.52-6.52zm-6.6.51a.94.94 0 0 0-.93-.94H.93a.94.94 0 0 0-.93.94v19.63l.01.06-.01.07c0 .51.42.93.93.93h16.64c.24 0 .45-.09.61-.23.3-.16.51-.47.51-.83V11.27a.94.94 0 0 0-1.87 0v11.17H1.87V4.55h6.87c.51 0 .93-.42.93-.93z"/></svg>